#!OML:ASF H:\ManfredETheater\Project 1\Capture day 1\Session 1\subject.ASF
:FULLY-SPECIFIED
:DEGREES
65
root -0.475579 16.7062 -10.1394 17.0399 7.41177 -10.9574
lowerback 17.0221 0.97945 8.89342
upperback -0.125976 3.59493 5.26314
thorax -9.55692 1.43067 -0.175222
lowerneck -18.6905 2.26135 1.60372
upperneck 3.99462 3.27739 -6.71988
head 4.3299 1.21706 -2.06515
rclavicle 4.01545e-014 9.30312e-014
rhumerus -42.8631 6.53221 -86.0872
rradius 106.739
rwrist -6.59962
rhand -27.1881 12.9963
rfingers 7.12502
rthumb -0.601769 -16.9826
lclavicle 4.01545e-014 9.30312e-014
lhumerus -63.7374 -12.9327 99.787
lradius 94.4567
lwrist 26.0529
lhand -26.0166 -6.59667
lfingers 7.12502
lthumb 0.529704 23.3824
rfemur -18.6568 -6.20337 24.015
rtibia 48.6213
rfoot -10.6825 -19.9068
rtoes -47.5099
lfemur -57.2341 7.52762 -21.437
ltibia 81.9334
lfoot -18.3949 -11.3946
ltoes -13.0341
66
root -0.421411 16.8017 -9.57001 16.9583 8.47647 -11.2357
lowerback 16.7525 1.06238 9.19306
upperback -0.18453 3.75172 5.41643
thorax -9.45426 1.49966 -0.203878
lowerneck -18.7283 1.93994 1.48696
upperneck 4.16288 2.87243 -6.58158
head 4.36633 1.0205 -2.04027
rclavicle -2.50469e-014 -3.33958e-014
rhumerus -42.9853 7.02178 -86.0726
rradius 108.559
rwrist -6.37375
rhand -26.7743 13.3533
rfingers 7.12502
rthumb -0.202114 -16.6263
lclavicle -2.50469e-014 -3.33958e-014
lhumerus -65.4228 -12.9806 100.091
lradius 95.5273
lwrist 26.1879
lhand -25.584 -6.56381
lfingers 7.12502
lthumb 0.947564 23.4138
rfemur -16.0642 -5.96685 24.192
rtibia 46.7571
rfoot -7.44532 -18.1696
rtoes -47.3754
lfemur -58.7622 7.15974 -22.4369
ltibia 78.4498
lfoot -18.3387 -11.8871
ltoes -13.7367
67
root -0.361064 16.8966 -8.9942 16.7899 9.51315 -11.4777
lowerback 16.5319 1.1273 9.43313
upperback -0.226001 3.87683 5.57264
thorax -9.36556 1.55653 -0.18922
lowerneck -18.7859 1.63031 1.36147
upperneck 4.39199 2.48757 -6.43674
head 4.42643 0.83257 -2.01024
rclavicle 3.97569e-016 -1.59028e-015
rhumerus -43.1587 7.45324 -86.0207
rradius 110.101
rwrist -6.45148
rhand -26.3905 13.5845
rfingers 7.12502
rthumb 0.168599 -16.3952
lclavicle 3.97569e-016 -1.59028e-015
lhumerus -67.0312 -12.8455 100.353
lradius 96.4682
lwrist 26.5611
lhand -25.2988 -6.49269
lfingers 7.12502
lthumb 1.22302 23.4835
rfemur -13.4769 -5.7421 24.2986
rtibia 44.7897
rfoot -3.62922 -16.1533
rtoes -46.8444
lfemur -59.8488 6.75972 -23.474
ltibia 74.644
lfoot -18.0414 -12.2893
ltoes -14.3426
68
root -0.295642 16.9878 -8.41261 16.5335 10.5199 -11.6864
lowerback 16.3663 1.17678 9.61447
upperback -0.251765 3.97562 5.73158
thorax -9.29596 1.60342 -0.134014
lowerneck -18.8698 1.32918 1.21963
upperneck 4.68552 2.11938 -6.27674
head 4.51203 0.651924 -1.97171
rclavicle -8.74653e-015 3.18055e-015
rhumerus -43.3833 7.8198 -85.9363
rradius 111.356
rwrist -6.87464
rhand -26.0867 13.7022
rfingers 7.12502
rthumb 0.462048 -16.2771
lclavicle -8.74653e-015 3.18055e-015
lhumerus -68.5667 -12.5646 100.577
lradius 97.2976
lwrist 27.0789
lhand -25.1338 -6.41078
lfingers 7.12502
lthumb 1.38234 23.5645
rfemur -10.8972 -5.50508 24.3471
rtibia 42.7439
rfoot 0.739167 -13.9714
rtoes -45.7558
lfemur -60.5145 6.36875 -24.5423
ltibia 70.5961
lfoot -17.427 -12.6592
ltoes -14.6832
69
root -0.226162 17.0718 -7.82728 16.2251 11.4639 -11.8865
lowerback 16.2303 1.22948 9.74792
upperback -0.268244 4.07243 5.89295
thorax -9.23618 1.6516 -0.0498346
lowerneck -18.9951 1.03212 1.05604
upperneck 5.04113 1.7621 -6.09227
head 4.62458 0.476193 -1.92172
rclavicle -8.74653e-015 -3.89618e-014
rhumerus -43.649 8.10981 -85.8183
rradius 112.322
rwrist -7.60942
rhand -25.8386 13.723
rfingers 7.12502
rthumb 0.701667 -16.2556
lclavicle -8.74653e-015 -3.89618e-014
lhumerus -70.0214 -12.1828 100.768
lradius 98.0287
lwrist 27.6338
lhand -25.0469 -6.35069
lfingers 7.12502
lthumb 1.46631 23.624
rfemur -8.38795 -5.20791 24.3711
rtibia 40.6768
rfoot 5.56756 -11.724
rtoes -43.9205
lfemur -60.8466 6.04366 -25.6318
ltibia 66.3999
lfoot -16.458 -13.0146
ltoes -14.7376
70
root -0.153885 17.1459 -7.23939 15.8721 12.3501 -12.1041
lowerback 16.1132 1.28807 9.86013
upperback -0.275988 4.17492 6.05998
thorax -9.17907 1.7038 0.050629
lowerneck -19.1471 0.73606 0.87005
upperneck 5.42742 1.41005 -5.8838
head 4.75213 0.303599 -1.86096
rclavicle 1.59028e-015 6.36111e-014
rhumerus -43.9499 8.31598 -85.6698
rradius 112.999
rwrist -8.54334
rhand -25.6571 13.6637
rfingers 7.12502
rthumb 0.876927 -16.3142
lclavicle 1.59028e-015 6.36111e-014
lhumerus -71.3923 -11.7437 100.926
lradius 98.6837
lwrist 28.1225
lhand -24.9925 -6.29997
lfingers 7.12502
lthumb 1.51879 23.6744
rfemur -5.97652 -4.82894 24.4227
rtibia 38.6754
rfoot 10.5634 -9.5481
rtoes -41.2673
lfemur -60.9012 5.80582 -26.7162
ltibia 62.1565
lfoot -15.131 -13.373
ltoes -14.3492
71
root -0.0798518 17.2082 -6.65059 15.4816 13.1864 -12.3749
lowerback 16.0038 1.35117 9.98903
upperback -0.277891 4.28765 6.23682
thorax -9.11928 1.76071 0.150411
lowerneck -19.3121 0.442452 0.675896
upperneck 5.81861 1.0613 -5.66046
head 4.88487 0.133733 -1.79476
rclavicle -2.14687e-014 1.90833e-014
rhumerus -44.2799 8.42943 -85.4926
rradius 113.392
rwrist -9.54247
rhand -25.5207 13.5583
rfingers 7.12502
rthumb 1.0087 -16.4191
lclavicle -2.14687e-014 1.90833e-014
lhumerus -72.6761 -11.278 101.046
lradius 99.2825
lwrist 28.4608
lhand -24.9229 -6.29986
lfingers 7.12502
lthumb 1.58602 23.674
rfemur -3.73183 -4.37599 24.5604
rtibia 36.9072
rfoot 15.1438 -7.50337
rtoes -38.1441
lfemur -60.7519 5.66827 -27.7585
ltibia 58.0016
lfoot -13.5048 -13.7308
ltoes -13.3627
72
root -0.00489431 17.2579 -6.06221 15.0456 13.9775 -12.7272
lowerback 15.9106 1.41519 10.169
upperback -0.272012 4.41332 6.424
thorax -9.05705 1.82203 0.23049
lowerneck -19.4881 0.151844 0.47674
upperneck 6.19562 0.714941 -5.42299
head 5.01661 -0.0333351 -1.72387
rclavicle -2.42517e-014 -1.35174e-014
rhumerus -44.6291 8.44935 -85.2959
rradius 113.505
rwrist -10.4207
rhand -25.4415 13.4172
rfingers 7.12502
rthumb 1.0852 -16.5598
lclavicle -2.42517e-014 -1.35174e-014
lhumerus -73.8666 -10.8063 101.122
lradius 99.8425
lwrist 28.5889
lhand -24.7905 -6.33533
lfingers 7.12502
lthumb 1.71392 23.6375
rfemur -1.68709 -3.87647 24.8266
rtibia 35.4959
rfoot 18.8462 -5.63951
rtoes -34.9931
lfemur -60.4436 5.63829 -28.7258
ltibia 54.0459
lfoot -11.6831 -14.0219
ltoes -11.7723
73
root 0.0677361 17.284 -5.47729 14.5667 14.7266 -13.1858
lowerback 15.8343 1.47352 10.4258
upperback -0.262975 4.54865 6.62252
thorax -8.99627 1.88482 0.278838
lowerneck -19.6514 -0.12701 0.281474
upperneck 6.53431 0.379132 -5.17172
head 5.13637 -0.192581 -1.64868
rclavicle -1.43125e-014 2.78299e-014
rhumerus -44.9958 8.38042 -85.0914
rradius 113.354
rwrist -11.0571
rhand -25.3702 13.2638
rfingers 7.12502
rthumb 1.154 -16.7128
lclavicle -1.43125e-014 2.78299e-014
lhumerus -74.9665 -10.3248 101.141
lradius 100.385
lwrist 28.4874
lhand -24.5649 -6.43401
lfingers 7.12502
lthumb 1.93181 23.537
rfemur 0.0824821 -3.38933 25.2463
rtibia 34.6242
rfoot 21.3447 -3.98108
rtoes -32.3288
lfemur -60.0861 5.72236 -29.6081
ltibia 50.4464
lfoot -9.83076 -14.1506
ltoes -9.94689
74
root 0.142235 17.3035 -4.89478 14.0378 15.4309 -13.7589
lowerback 15.7814 1.51951 10.7765
upperback -0.248652 4.68829 6.82817
thorax -8.93659 1.94568 0.282749
lowerneck -19.7956 -0.3905 0.0959007
upperneck 6.82466 0.0568379 -4.90784
head 5.23994 -0.342253 -1.5699
rclavicle 7.79236e-014 2.3059e-014
rhumerus -45.3742 8.23294 -84.896
rradius 112.954
rwrist -11.3569
rhand -25.2885 13.0964
rfingers 7.12502
rthumb 1.23292 -16.8798
lclavicle 7.79236e-014 2.3059e-014
lhumerus -75.9748 -9.82473 101.102
lradius 100.937
lwrist 28.1613
lhand -24.2954 -6.49817
lfingers 7.12502
lthumb 2.19207 23.4703
rfemur 1.53656 -2.98442 25.7976
rtibia 34.3882
rfoot 22.5674 -2.57062
rtoes -30.5199
lfemur -59.6328 5.91802 -30.3726
ltibia 47.2698
lfoot -8.14651 -14.0585
ltoes -8.11286
75
root 0.216676 17.3089 -4.31632 13.4743 16.0881 -14.4288
lowerback 15.7398 1.54952 11.2071
upperback -0.234355 4.8227 7.03234
thorax -8.87736 2.00048 0.243422
lowerneck -19.9073 -0.63106 -0.0707371
upperneck 7.06461 -0.244026 -4.63498
head 5.32462 -0.478386 -1.48904
rclavicle 5.00937e-014 -2.70347e-014
rhumerus -45.7622 8.01791 -84.7258
rradius 112.316
rwrist -11.2945
rhand -25.1697 12.9304
rfingers 7.12502
rthumb 1.34769 -17.0451
lclavicle 5.00937e-014 -2.70347e-014
lhumerus -76.8956 -9.28978 100.999
lradius 101.512
lwrist 27.6624
lhand -23.9617 -6.56662
lfingers 7.12502
lthumb 2.51434 23.3983
rfemur 2.61491 -2.72502 26.4325
rtibia 34.8843
rfoot 22.6354 -1.44348
rtoes -29.6635
lfemur -59.1644 6.18793 -31.0124
ltibia 44.6354
lfoot -6.7036 -13.7248
ltoes -6.44175
76
root 0.291005 17.3017 -3.74227 12.8905 16.6891 -15.1636
lowerback 15.7025 1.56276 11.6809
upperback -0.218894 4.94197 7.22772
thorax -8.81552 2.0462 0.175448
lowerneck -19.9813 -0.841163 -0.210981
upperneck 7.24955 -0.514828 -4.35889
head 5.38805 -0.597001 -1.40793
rclavicle 3.89618e-014 7.4743e-014
rhumerus -46.1572 7.74958 -84.5949
rradius 111.461
rwrist -10.8927
rhand -25.0113 12.7661
rfingers 7.12502
rthumb 1.50062 -17.2083
lclavicle 3.89618e-014 7.4743e-014
lhumerus -77.7147 -8.70016 100.83
lradius 102.113
lwrist 27.0558
lhand -23.5888 -6.64982
lfingers 7.12502
lthumb 2.87447 23.3106
rfemur 3.31013 -2.6354 27.0842
rtibia 36.0772
rfoot 21.9016 -0.647312
rtoes -29.5958
lfemur -58.6806 6.49204 -31.5127
ltibia 42.5654
lfoot -5.49994 -13.1621
ltoes -4.91701
77
root 0.365641 17.2837 -3.1718 12.3079 17.2315 -15.8996
lowerback 15.6569 1.56132 12.139
upperback -0.202118 5.0342 7.39998
thorax -8.74755 2.07968 0.0981738
lowerneck -20.0279 -1.01747 -0.331894
upperneck 7.39793 -0.748862 -4.07516
head 5.43755 -0.695261 -1.32341
rclavicle -7.67309e-014 3.18055e-014
rhumerus -46.5592 7.43197 -84.5052
rradius 110.411
rwrist -10.2444
rhand -24.7959 12.6019
rfingers 7.12502
rthumb 1.70871 -17.371
lclavicle -7.67309e-014 3.18055e-014
lhumerus -78.4206 -8.05082 100.602
lradius 102.738
lwrist 26.4272
lhand -23.2217 -6.73158
lfingers 7.12502
lthumb 3.22896 23.2237
rfemur 3.61371 -2.71438 27.6611
rtibia 37.9437
rfoot 20.7243 -0.21455
rtoes -29.9586
lfemur -58.1728 6.77893 -31.884
ltibia 41.0835
lfoot -4.48931 -12.4408
ltoes -3.57556
78
root 0.440646 17.2557 -2.60372 11.7481 17.7053 -16.5757
lowerback 15.5905 1.55191 12.5183
upperback -0.184271 5.09306 7.53716
thorax -8.67093 2.10051 0.0338882
lowerneck -20.0403 -1.159 -0.430694
upperneck 7.51436 -0.944196 -3.79343
head 5.47324 -0.773043 -1.23863
rclavicle -1.59028e-015 -5.40694e-014
rhumerus -46.9794 7.0681 -84.4583
rradius 109.193
rwrist -9.46749
rhand -24.5488 12.4436
rfingers 7.12502
rthumb 1.94736 -17.5272
lclavicle -1.59028e-015 -5.40694e-014
lhumerus -79.0038 -7.34596 100.325
lradius 103.384
lwrist 25.8608
lhand -22.8416 -6.82616
lfingers 7.12502
lthumb 3.59602 23.1233
rfemur 3.55226 -2.93934 28.0814
rtibia 40.3852
rfoot 19.4309 -0.108434
rtoes -30.4762
lfemur -57.6076 7.0084 -32.1379
ltibia 40.1419
lfoot -3.54648 -11.6479
ltoes -2.32271
